<svg xmlns="http://www.w3.org/2000/svg" width="54.982" height="35.606" viewBox="0 0 54.982 35.606">
  <path id="android" d="M40.148,85.646a2.655,2.655,0,1,1,2.291-2.63,2.478,2.478,0,0,1-2.291,2.63m-25.305,0a2.655,2.655,0,0,1,0-5.259,2.655,2.655,0,0,1,0,5.259M40.969,69.813l4.572-9.094a1.236,1.236,0,0,0,.028-1.122.9.9,0,0,0-1.679.026h0l-4.63,9.215a25.4,25.4,0,0,0-23.539,0l-4.63-9.2a.9.9,0,0,0-1.679-.026A1.236,1.236,0,0,0,9.44,60.73h0l4.572,9.094C6.157,74.722.783,83.86,0,94.642H54.982C54.2,83.849,48.825,74.722,40.96,69.813" transform="translate(0 -59.035)" fill="#401679"/>
</svg>
