<svg xmlns="http://www.w3.org/2000/svg" width="46.382" height="55.195" viewBox="0 0 46.382 55.195">
  <path id="apple" d="M42.779,61.167c-.025-4.522,2.021-7.936,6.161-10.449-2.317-3.315-5.816-5.138-10.437-5.5-4.374-.345-9.156,2.551-10.905,2.551-1.848,0-6.087-2.428-9.414-2.428C11.307,45.456,4,50.829,4,61.759A30.713,30.713,0,0,0,5.774,71.765c1.577,4.522,7.27,15.613,13.21,15.428,3.105-.074,5.3-2.206,9.34-2.206,3.919,0,5.952,2.206,9.414,2.206,5.989-.086,11.14-10.166,12.643-14.7-8.034-3.783-7.6-11.09-7.6-11.324ZM35.8,40.934A11.606,11.606,0,0,0,38.762,32a13.066,13.066,0,0,0-8.367,4.3,11.788,11.788,0,0,0-3.155,8.86C30.456,45.407,33.389,43.756,35.8,40.934Z" transform="translate(-4 -32)" fill="#401679"/>
</svg>
