<svg xmlns="http://www.w3.org/2000/svg" width="42.478" height="36.278" viewBox="0 0 42.478 36.278">
  <path id="heart-regular" d="M18.733,78.113l-.207-.191L3.991,64.424A12.494,12.494,0,0,1,0,55.264v-.274a12.166,12.166,0,0,1,19.165-9.947,12.457,12.457,0,0,1,2.074,1.85,10.813,10.813,0,0,1,1.12-1.1,11.805,11.805,0,0,1,.954-.747h0a12.159,12.159,0,0,1,19.165,9.947v.274a12.494,12.494,0,0,1-3.991,9.159l-14.535,13.5-.207.191a3.693,3.693,0,0,1-2.506.987,3.655,3.655,0,0,1-2.506-.987Zm1.1-26.814a.435.435,0,0,1-.083-.091l-1.477-1.659-.008-.008h0A8.183,8.183,0,0,0,3.982,54.991v.274A8.52,8.52,0,0,0,6.7,61.5L21.239,75,35.774,61.5A8.52,8.52,0,0,0,38.5,55.264v-.274A8.177,8.177,0,0,0,24.217,49.54l-.008.008-.008.008-1.477,1.659c-.025.033-.058.058-.083.091a1.983,1.983,0,0,1-2.8,0Z" transform="translate(0 -42.822)" fill="#501bc9"/>
</svg>
